<svg xmlns="http://www.w3.org/2000/svg" viewBox="0 0 800 800">
	<defs>
		<style>.cls-1{fill:#00a0e9;}.cls-2{fill:#fff;}</style>
	</defs>
	<g id="图层_2" data-name="图层 2">
		<g id="图层_1-2" data-name="图层 1">
			<path class="cls-1"
			      d="M0,0V800H800V0H491.53c.09,1.42.22,2.85.22,4.3a91.74,91.74,0,0,1-183.48,0c0-1.45.14-2.88.2-4.3Z"/>
			<path class="cls-2"
			      d="M398.45,546,341.69,756.74H281.43l-37.69-137.3-36.85,137.3H146.77L90,546h56.74l32.33,145.08L218,546h54.22l36.9,145.08L343,546Z"/>
			<path class="cls-2" d="M548.64,756.74H425.21V719.38h34.53v-136H425.21V546H548.64v37.36H514.1v136h34.54Z"/>
			<path class="cls-2" d="M757.85,586.74H692v170H637.67v-170H571.85V546h186Z"/>
		</g>
	</g>
</svg>