<?xml version="1.0" encoding="utf-8"?>
<!-- Generator: Adobe Illustrator 25.4.1, SVG Export Plug-In . SVG Version: 6.00 Build 0)  -->
<svg version="1.1" id="logo" xmlns="http://www.w3.org/2000/svg" xmlns:xlink="http://www.w3.org/1999/xlink" x="0px"
     y="0px"
     viewBox="0 0 64 64" style="enable-background:new 0 0 64 64;" xml:space="preserve">
<style type="text/css">
	.st0{fill-rule:evenodd;clip-rule:evenodd;fill:#B7D6F4;}
	.st1{opacity:0.4;fill:#B7D6F4;stroke:#B7D6F4;stroke-width:4.961240e-02;stroke-miterlimit:10;enable-background:new    ;}
	.st2{fill:#FFFFFF;}
	.st3{fill-rule:evenodd;clip-rule:evenodd;fill:#FFFFFF;}
	.st4{fill-rule:evenodd;clip-rule:evenodd;fill:#B92482;}
	.st5{fill:#B92482;}
	.st6{font-family:'SourceHanSansCN-Medium-GBpc-EUC-H';}
	.st7{font-size:7.3507px;}
	.st8{font-size:4.3688px;}
</style>
	<g>
	<path id="椭圆_10_拷贝_2" class="st0" d="M32,38.1c9.1,0,16.5,5.3,16.5,11.8S41.1,61.7,32,61.7s-16.5-5.3-16.5-11.8
		S22.9,38.1,32,38.1z"/>

		<image style="overflow:visible;opacity:0.8;enable-background:new    ;" width="77" height="59"
		       id="椭圆_12_拷贝_2" xlink:href="44C65961.png"
		       transform="matrix(8.066650e-02 0 0 8.066650e-02 36.8965 38.6744)">
	</image>
		<circle id="椭圆_11" class="st1" cx="22.8" cy="44" r="3.1"/>
		<circle id="椭圆_12" class="st2" cx="20.8" cy="43.3" r="3.3"/>
		<circle id="椭圆_11_拷贝" class="st1" cx="44.3" cy="46.4" r="1.8"/>
		<path id="椭圆_12_拷贝" class="st3" d="M45.5,44.1c1,0,1.9,0.8,1.9,1.9c0,1-0.8,1.9-1.9,1.9c-1,0-1.9-0.8-1.9-1.9
		C43.6,45,44.4,44.1,45.5,44.1z"/>
		<path id="椭圆_10" class="st4" d="M32,23.1c7.8-0.1,11.3,3.9,11.3,8.5S38.1,40,32,40c-6.5,0-11.2-3.7-11.2-8.4S24.2,23.1,32,23.1
		z"/>
		<path id="形状_17" class="st4" d="M32.3,23.3l2.4-16.3c0,0,0.9-4.7,4.9-4.6s6.9,6.1,7,11.1c-0.1,6.3-3.6,4.2-5.5,1.1
		c0-0.4-4.7,9.2-4.7,9.2L32.3,23.3z"/>
		<path id="形状_17_拷贝" class="st4" d="M31.6,23.3L29.2,6.9c0,0-0.9-4.7-4.9-4.6c-4,0.1-6.9,6.1-7,11.1
		c0.1,6.3,3.6,4.2,5.5,1.1c0-0.4,4.7,9.2,4.7,9.2L31.6,23.3z"/>
		<path id="圆角矩形_1_拷贝_4" class="st3" d="M26.2,26.8h11.8c2.1,0,3.8,1.7,3.8,3.7c0,2.1-1.7,3.8-3.7,3.8c0,0,0,0,0,0
		c0,0-3-1.3-6-1.3c-2.9,0-5.8,1.3-5.8,1.3c-1.8-1.1-2-3.9-1-5.7C25.5,28.1,26,27.6,26.2,26.8z"/>
		<text id="_拷贝_2" transform="matrix(0.5016 0 0 1 34.4637 33.2854)" class="st5 st6 st7">&lt;</text>
		<text id="_拷贝_2-2" transform="matrix(-0.5016 0 0 1 38.9051 33.2854)" class="st5 st6 st7">&lt;</text>
		<text id="_01" transform="matrix(1 0 0 1 25.3016 32.051)" class="st5 st6 st8">01</text>
		<path id="形状_15_拷贝_3" class="st4" d="M35,43.8c0.9,0,1.7,0.8,1.7,1.7c0,0.9-0.8,1.7-1.7,1.7c-0.9,0-1.7-0.8-1.7-1.7
		c0,0,0,0,0,0C33.3,44.6,34.1,43.8,35,43.8L35,43.8z M28.9,43.8c0.9,0,1.7,0.8,1.7,1.7c0,0.9-0.8,1.7-1.7,1.7
		c-0.9,0-1.7-0.8-1.7-1.7C27.2,44.6,28,43.8,28.9,43.8z M29.8,38.8c0,0-1.8,0.8-2.8,2.6c-1.1,1.8-1.5,3.8-0.2,3.9s2.2-4.6,2.7-3.9
		c-0.3,1.2-1,2.2-1,2.8c-0.1,0.7,2.1,1.1,2.8,1.1c0.7,0,2.8-0.2,2.8-0.2l1.7-0.1c0,0,0-1.2-0.6-2.4c-0.7-1.1-0.8-1.5-0.6-1.4
		c0.3,0.1,1.9,3.9,2.8,3.6c0.9-0.2,1.6-1.7-1.3-4.9c-2.9-3.2-2.5-1.5-2.5-1.5h-1.2L29.8,38.8z M32.1,37.4h7.3v10.8h-7.3V37.4z"/>
		<path id="形状_15_拷贝_4" class="st4" d="M29.1,43.8c0.9,0,1.7,0.8,1.7,1.7c0,0.9-0.8,1.7-1.7,1.7c-0.9,0-1.7-0.8-1.7-1.7
		c0,0,0,0,0,0C27.4,44.6,28.2,43.8,29.1,43.8C29.1,43.8,29.1,43.8,29.1,43.8z M35.2,43.8c0.9,0,1.7,0.8,1.7,1.7
		c0,0.9-0.8,1.7-1.7,1.7c-0.9,0-1.7-0.8-1.7-1.7C33.5,44.6,34.2,43.8,35.2,43.8z M34.3,38.8c0,0,1.8,0.8,2.8,2.6
		c1.1,1.8,1.5,3.8,0.2,3.9c-1.3,0.1-2.2-4.6-2.7-3.9c0.3,1.2,1,2.2,1,2.8c0.1,0.7-2.1,1.1-2.8,1.1c-0.7,0-2.8-0.2-2.8-0.2l-1.7-0.1
		c0,0,0-1.2,0.6-2.4c0.7-1.1,0.8-1.5,0.6-1.4c-0.3,0.1-1.9,3.9-2.8,3.6c-0.9-0.2-1.6-1.7,1.3-4.9c2.9-3.2,2.5-1.5,2.5-1.5h1.2
		L34.3,38.8z M24.7,37.4H32v10.8h-7.3V37.4z"/>
</g>
</svg>
